PathFileType	4	(X/Y/Z)	Patient4_TMGait_0pt7_02_left_25.trc.trc
DataRate	CameraRate	NumFrames	NumMarkers	Units	OrigDataRate	OrigDataStartFrame	OrigNumFrames
86.419753086420	86.419753086420	5	33	mm	86.419753086420	36	       141
Frame#	Time	Sacral			L.Shoulder			Chest			R.Shoulder			Neck			R.ASIS			L.ASIS			R.Thigh.Superior			R.Thigh.Lateral			R.Thigh.Inferior			R.Patella			L.Thigh.Superior			L.Thigh.Lateral			L.Thigh.Inferior			L.Patella			L.Shank.Superior			L.Shank.Lateral			L.Shank.Inferior			R.Shank.Superior			R.Shank.Lateral			R.Shank.Inferior			R.Heel			R.Midfoot.Superior			R.Midfoot.Lateral			R.Toe			L.Heel			L.Midfoot.Lateral			L.Midfoot.Superior			L.Toe			L.Elbow			L.Wrist			R.Elbow			R.Wrist			
		X1	Y1	Z1	X2	Y2	Z2	X3	Y3	Z3	X4	Y4	Z4	X5	Y5	Z5	X6	Y6	Z6	X7	Y7	Z7	X8	Y8	Z8	X9	Y9	Z9	X10	Y10	Z10	X11	Y11	Z11	X12	Y12	Z12	X13	Y13	Z13	X14	Y14	Z14	X15	Y15	Z15	X16	Y16	Z16	X17	Y17	Z17	X18	Y18	Z18	X19	Y19	Z19	X20	Y20	Z20	X21	Y21	Z21	X22	Y22	Z22	X23	Y23	Z23	X24	Y24	Z24	X25	Y25	Z25	X26	Y26	Z26	X27	Y27	Z27	X28	Y28	Z28	X29	Y29	Z29	X30	Y30	Z30	X31	Y31	Z31	X32	Y32	Z32	X33	Y33	Z33	

36	28.845000000000	864.797825241264	1003.236686676829	438.369454983860	1052.007323318365	1408.206197517590	227.822684169024	1167.043305102834	1341.037829353933	382.507042269407	1106.171520935920	1434.775516549226	555.271133540085	1072.094837011492	1476.995913568114	377.725482583481	1085.900512389628	927.573250044702	549.292717333208	1073.522868770917	942.892503544537	274.546755132001	1107.217569019241	717.384193130549	533.500083429434	1016.890756105158	616.427298190063	600.067344226211	1093.072612970449	550.050753883385	528.743605278150	1076.317240155059	443.686355239129	549.224585655193	1152.151064168685	766.707336249974	320.349709023119	1097.756715603044	636.757585347093	249.577677489809	1191.827611044839	574.490624206776	319.800586094009	1206.269370929874	501.440468640007	326.938591379124	1182.776385893188	424.956079295546	314.573674854642	1105.641640157709	308.115184087328	249.456867977877	1154.076616785200	196.626064441468	322.388351058785	998.036368091447	379.736447043187	554.682375650026	878.764209755369	339.322484806644	617.612081669584	862.273186968259	232.012716890090	565.428024688268	657.568236382835	156.749180167778	544.168038244763	833.077904701402	119.642551219160	577.353547305602	726.687817508731	107.092879137214	615.650946955161	910.687218098168	31.771743879630	600.387252734648	1028.238209382849	39.116926691859	343.918998577552	1112.487208300817	36.307828938337	273.722033752162	1190.322680453465	97.322876275814	311.255260220184	1322.027929929789	45.882405529632	301.025273258808	902.429883238404	1082.482579741772	158.682262494720	850.835526202090	828.404453831286	193.491852158693	1243.547369754631	1124.086638096007	663.909485342478	1399.744696802896	1251.083401143760	519.703447279843	
37	28.856571428571	865.080105947524	1004.756422100448	435.374586492134	1052.832240166433	1409.856426823587	225.216306113557	1167.357228587403	1342.961498686504	380.389773690302	1105.500331669698	1436.698656688299	552.982598736070	1072.306470461755	1478.762844112967	375.118350695147	1086.085101490089	929.378594537233	546.963426661509	1074.564255424144	944.534968997826	272.327195038881	1112.498395086573	720.738459178063	532.212388625606	1024.654618149205	618.000276160339	598.882179786626	1103.277360633219	552.857860735340	528.334446972138	1087.647400792724	445.155305816069	549.627249863752	1151.068873664088	765.814034095916	316.483650946233	1094.078528463665	637.009386136695	246.678658907740	1187.520472281497	573.511735829464	316.461293241497	1201.062973959380	500.625529335844	323.617379864663	1177.025758700944	424.416045732406	311.791940675975	1098.755078035960	307.762306617397	247.773824053491	1146.849552670897	196.460112814849	321.188543322267	1007.390053820263	382.166710712692	554.335874584432	885.899792252408	346.194923637577	615.938347935667	867.021659606319	238.938024274956	564.564582816765	660.468109312480	172.539868298181	541.033885929364	833.763652776003	126.079913950918	576.779967581823	726.071518309537	119.548220689119	613.576195965852	905.527427732243	32.180735655600	601.187158900235	1020.330996619289	39.035979279821	343.695823551233	1104.587945264287	36.244517715540	273.505715816474	1182.367005740624	97.367591878473	310.895237289890	1314.095240556202	46.061669274634	300.889792463898	907.819092864741	1081.948293366337	153.699513836862	865.183203613013	825.894345175548	186.548598935735	1233.775631169274	1121.617161982483	664.671950672138	1396.034108721255	1240.094785607727	519.818854158002	
38	28.868142857143	865.168700085802	1006.248184384050	432.535998401304	1053.692405811414	1411.447607535553	222.680247902787	1167.552560579077	1344.916352919502	378.491800424601	1104.469057338892	1438.666164995820	550.831843319238	1072.343126162684	1480.521148792147	372.579895037794	1086.130494326759	931.154564593254	544.895545482814	1075.444440432393	946.175419339288	270.412720351728	1117.727275616576	724.394238450283	531.118579491475	1032.454050716488	619.933958706822	597.912197200821	1113.390349910264	556.154541000860	528.014597476068	1099.044027165315	447.224240537270	549.860708469526	1149.566771398023	764.714725897176	312.439379887981	1089.718697495871	637.227431150626	243.768237251831	1182.676207096405	572.486703160864	312.862284336146	1195.299816436970	499.842401040515	320.035945236798	1170.764640049748	423.941725352744	308.844709271670	1091.364934768525	307.408537465308	246.073555733730	1139.434030869917	196.353481014534	319.870114532780	1017.007525290626	384.991180969161	553.847108324458	893.548321449225	353.200781800483	614.066519976347	872.417453708077	246.125428555268	563.369112626553	664.572019335179	187.928054039583	537.225910638385	835.350882732387	133.317390407331	576.041307578502	726.604350201910	132.322556707424	611.085906833477	901.599918738834	33.577568693228	602.306077689651	1012.389319255474	38.992616222674	343.498396021422	1096.639337990414	36.157089901859	273.301718988692	1174.419505027018	97.353260655834	310.483809781686	1306.130928286909	46.110467649884	300.717859169900	913.361264784787	1081.438893868821	148.645354352679	880.247607623234	823.639024350994	179.301397612966	1223.223495158687	1119.476830505873	665.543106344925	1392.229987198425	1227.731894804350	520.311286032246	
39	28.879714285714	865.069145234644	1007.713629688518	429.869473408260	1054.575047600531	1412.968824401025	220.230430466868	1167.628981869410	1346.871225240111	376.807393670469	1103.136790891020	1440.662712428207	548.817701359276	1072.233101505720	1482.264573898653	370.120839624615	1086.023342145259	932.898829855068	543.060436697529	1076.125657804648	947.813724818054	268.752437181721	1122.771702003799	728.331656342749	530.140955713608	1040.204521358142	622.248514343583	597.158668632247	1123.283476781093	559.947195643783	527.768306194351	1110.428407742347	449.895848463262	549.995340070306	1147.732239443455	763.536680865783	308.282274983246	1084.813857622569	637.449517454851	240.956073618039	1177.421958257186	571.472804225605	309.141594248148	1189.108598431687	499.125603458408	316.366756945520	1164.118064370983	423.556565209156	305.866975725176	1083.593396356783	307.113137496719	244.415709911086	1131.868964339974	196.315481467742	318.495745603748	1026.814199392874	388.202855790479	553.310258779288	901.617647398317	360.243738951252	612.063648486043	878.453265135880	253.431651080857	561.934095814224	669.820710776272	202.490764926215	532.873391558274	837.926819570773	141.119924394033	575.149407344271	728.360752299394	145.015970346049	608.258382673770	899.179749148163	36.112228950347	603.684923586858	1004.395898043622	38.998331946031	343.318451048270	1088.628669789546	36.065749550772	273.111128587859	1166.465285110749	97.299819945366	310.040638273308	1298.121749946989	46.045750152186	300.518531554289	919.172381810246	1080.889341723427	143.565211997823	895.965040651243	821.662365919605	171.794054166351	1212.019039022686	1117.716184486253	666.469581331706	1388.224698358428	1214.029443265413	521.244196038595	
40	28.891285714286	864.799191873611	1009.167497347542	427.377332274596	1055.457933648915	1414.422202452807	217.882690270820	1167.588124653490	1348.801917633985	375.319583341143	1101.575649377460	1442.676031205633	546.933354431846	1072.006027780917	1483.992130163573	367.751563164402	1085.752485325582	934.619034674801	541.423891493665	1076.587795627310	949.446866976424	267.292988570392	1127.517670250619	732.527896073039	529.198044659032	1047.836260440168	624.954103883566	596.618540604312	1132.860771419984	564.231567417047	527.586968259361	1121.740476064221	453.163534983691	550.121399949197	1145.649554369707	762.384362829224	304.116773171595	1079.514833203533	637.706068350306	238.343953034704	1171.872944793841	570.509016720108	305.463769590188	1182.605059681466	498.492549865393	312.794062086392	1157.199008962091	423.274813158363	302.992204663020	1075.559481004866	306.920437609503	242.860217115632	1124.192036694184	196.350897326040	317.130504910993	1036.763371350623	391.788460053594	552.834565770361	910.038895777985	367.224826352878	610.022728823443	885.145589065577	260.701258141037	560.382284080704	676.148815967640	215.858828093874	528.181382761095	841.589570574358	149.189090356011	574.123664648790	731.412362879509	157.214882828993	605.214623120721	898.524219743088	39.796678213507	605.213759255878	996.346610137125	39.057028204187	343.149603410730	1080.556586904129	35.987372000644	272.936559066187	1158.495577929020	97.230057695225	309.587097008990	1290.064490665274	45.898599177771	300.303626768096	925.372692030585	1080.254976310388	138.497837695162	912.293354674012	819.985290863203	164.076844469333	1200.299988146132	1116.369321063865	667.407249626042	1383.892360282546	1199.038751333538	522.686510517629	
